<svg xmlns="http://www.w3.org/2000/svg" width="82.286" height="64" viewBox="0 0 82.286 64"><defs><style>.a{fill:#376eff;}</style></defs><path class="a" d="M75.429,32H6.857A6.859,6.859,0,0,0,0,38.857V89.143A6.859,6.859,0,0,0,6.857,96H75.429a6.859,6.859,0,0,0,6.857-6.857V38.857A6.859,6.859,0,0,0,75.429,32ZM25.143,45.714A9.143,9.143,0,1,1,16,54.857,9.151,9.151,0,0,1,25.143,45.714Zm16,33.829a3,3,0,0,1-3.2,2.743h-25.6a3,3,0,0,1-3.2-2.743V76.8c0-4.543,4.3-8.229,9.6-8.229h.714a14.715,14.715,0,0,0,11.371,0h.714c5.3,0,9.6,3.686,9.6,8.229Zm32-7.543A1.146,1.146,0,0,1,72,73.143H51.429A1.146,1.146,0,0,1,50.286,72V69.714a1.146,1.146,0,0,1,1.143-1.143H72a1.146,1.146,0,0,1,1.143,1.143Zm0-9.143A1.146,1.146,0,0,1,72,64H51.429a1.146,1.146,0,0,1-1.143-1.143V60.571a1.146,1.146,0,0,1,1.143-1.143H72a1.146,1.146,0,0,1,1.143,1.143Zm0-9.143A1.146,1.146,0,0,1,72,54.857H51.429a1.146,1.146,0,0,1-1.143-1.143V51.429a1.146,1.146,0,0,1,1.143-1.143H72a1.146,1.146,0,0,1,1.143,1.143Z" transform="translate(0 -32)"/></svg>