<?xml version="1.0" encoding="iso-8859-1"?>
<!-- Generator: Adobe Illustrator 19.0.0, SVG Export Plug-In . SVG Version: 6.00 Build 0)  -->
<svg version="1.1" id="Layer_1" xmlns="http://www.w3.org/2000/svg" xmlns:xlink="http://www.w3.org/1999/xlink" x="0px" y="0px"
	 viewBox="0 0 512.002 512.002" style="enable-background:new 0 0 512.002 512.002;" xml:space="preserve">
<g>
	<g>
		<path d="M291.31,402.761L109.241,220.693C79.073,190.525,30.166,190.526,0,220.692l291.31,291.31
			C321.474,481.835,321.476,432.927,291.31,402.761z"/>
	</g>
</g>
<g>
	<g>
		<polygon points="273.104,111.449 154.758,211.589 300.412,357.242 400.55,238.898 		"/>
	</g>
</g>
<g>
	<g>
		<path d="M500.688,175.174L336.827,11.313c-15.085-15.085-39.539-15.083-54.621,0c-15.082,15.082-15.082,39.538,0,54.62
			l163.861,163.861c15.083,15.085,39.539,15.085,54.621,0.001C515.773,214.712,515.773,190.257,500.688,175.174z"/>
	</g>
</g>
<g>
	<g>
		<polygon points="91.032,366.346 0,512 145.655,420.967 		"/>
	</g>
</g>
<g>
</g>
<g>
</g>
<g>
</g>
<g>
</g>
<g>
</g>
<g>
</g>
<g>
</g>
<g>
</g>
<g>
</g>
<g>
</g>
<g>
</g>
<g>
</g>
<g>
</g>
<g>
</g>
<g>
</g>
</svg>
